<svg xmlns="http://www.w3.org/2000/svg" xmlns:xlink="http://www.w3.org/1999/xlink" version="1.1" id="Calque_17" x="0px" y="0px" viewBox="0 0 234.2 234.2" style="enable-background:new 0 0 234.2 234.2;" xml:space="preserve">
<g style="fill: #ab947d">
	<path d="M171.9,79.1l-20.6-20.6c0,0-0.9-0.9-1.7-0.9c-0.8,0-67.2,0-67.2,0c-1.5,0-2.7,1.2-2.7,2.7V72h5.5v-7.7   c0-0.6,0.5-1.1,1.1-1.1h60.2l0,0v18.4c0,1.5,1.2,2.7,2.7,2.7h18.3v80.9c0,0.6-0.5,1.1-1.1,1.1H86.3c-0.6,0-1.1-0.5-1.1-1.1v-54.3   h-5.5v58.4c0,1.5,1.2,2.7,2.7,2.7h88c1.5,0,2.7-1.2,2.7-2.7c0,0,0-87.9,0-88.5C173.1,80.2,171.9,79.1,171.9,79.1z"/>
	<path d="M120.7,116.6H96.8c-1.1,0-2,0.9-2,2c0,1.1,0.9,2,2,2h23.8c1.1,0,2-0.9,2-2C122.7,117.5,121.8,116.6,120.7,116.6z"/>
	<path d="M120.7,128.1H96.8c-1.1,0-2,0.9-2,2s0.9,2,2,2h23.8c1.1,0,2-0.9,2-2C122.7,129,121.8,128.1,120.7,128.1z"/>
	<path d="M120.7,139.5H96.8c-1.1,0-2,0.9-2,2c0,1.1,0.9,2,2,2h23.8c1.1,0,2-0.9,2-2C122.7,140.4,121.8,139.5,120.7,139.5z"/>
	<path d="M120.7,151H96.8c-1.1,0-2,0.9-2,2c0,1.1,0.9,2,2,2h23.8c1.1,0,2-0.9,2-2C122.7,151.9,121.8,151,120.7,151z"/>
	<path d="M155.9,139.5H132c-1.1,0-2,0.9-2,2c0,1.1,0.9,2,2,2h23.8c1.1,0,2-0.9,2-2C157.9,140.4,157,139.5,155.9,139.5z"/>
	<path d="M155.9,151H132c-1.1,0-2,0.9-2,2c0,1.1,0.9,2,2,2h23.8c1.1,0,2-0.9,2-2C157.9,151.9,157,151,155.9,151z"/>
	<path d="M157.9,117.7c0-0.6-0.5-1.1-1.1-1.1h-25.6c-0.6,0-1.1,0.5-1.1,1.1v13c0,0.6,0.5,1.1,1.1,1.1h25.6c0.6,0,1.1-0.5,1.1-1.1   V117.7z"/>
	<path d="M84,85.1c-0.5-0.1-1.4-0.1-2.9-0.1h-1.9v5.8h2.2c1.6,0,2.6-0.1,3.1-0.3s0.9-0.5,1.2-1c0.3-0.5,0.4-1,0.4-1.6   c0-0.7-0.2-1.4-0.6-1.8C85.2,85.5,84.7,85.2,84,85.1z"/>
	<path d="M138.8,106.9V76.1c0-0.6-0.5-1.1-1.1-1.1H63.5c-0.6,0-1.1,0.5-1.1,1.1v30.8c0,0.6,0.5,1.1,1.1,1.1h74.2   C138.3,108,138.8,107.5,138.8,106.9z M89.7,91c-0.4,0.9-1,1.5-1.7,2c-0.7,0.5-1.4,0.8-2.1,1c-0.9,0.2-2.3,0.3-4.1,0.3h-2.6v7.7h-4   V81.5h6.4c2.4,0,4,0.1,4.7,0.3c1.1,0.3,2.1,1,2.8,2c0.8,1,1.1,2.4,1.1,4C90.3,89,90.1,90.1,89.7,91z M109,96.3   c-0.5,1.5-1.2,2.7-2.1,3.6c-0.7,0.7-1.6,1.2-2.8,1.6c-0.9,0.3-2,0.4-3.5,0.4h-7.5V81.5h7.2c1.6,0,2.9,0.1,3.7,0.4   c1.2,0.4,2.1,1,3,1.9s1.4,2,1.9,3.3c0.4,1.3,0.6,2.9,0.6,4.8C109.6,93.6,109.4,95.1,109,96.3z M126.9,84.9h-9.5v4.8h8.2v3.5h-8.2   v8.7h-4V81.5h13.4V84.9z"/>
	<path d="M103.9,86.1c-0.5-0.5-1.1-0.8-1.8-1c-0.6-0.1-1.6-0.2-3.3-0.2h-1.8v13.6h3c1.1,0,1.9-0.1,2.4-0.2c0.6-0.2,1.2-0.5,1.6-0.9   c0.4-0.4,0.8-1.1,1-2c0.3-0.9,0.4-2.2,0.4-3.8c0-1.6-0.1-2.8-0.4-3.6C104.8,87.2,104.4,86.6,103.9,86.1z"/>
</g>
</svg>