<?xml version="1.0" encoding="utf-8"?>
<!-- Generator: Adobe Illustrator 21.0.0, SVG Export Plug-In . SVG Version: 6.00 Build 0)  -->
<svg version="1.1" xmlns="http://www.w3.org/2000/svg" xmlns:xlink="http://www.w3.org/1999/xlink" x="0px" y="0px"
	 viewBox="0 0 205 242" style="enable-background:new 0 0 205 242;" xml:space="preserve">
<filter  id="AI_FlouGaussien_42">
	<feGaussianBlur  stdDeviation="4"></feGaussianBlur>
</filter>


<g id="cache">
	<g id="cache_1_">
		<path style="fill:#E9E5E0;" d="M0,0v242h205V0H0z M119.123,146.26c-8.695,10.349-24.133,11.689-34.482,2.993
			c-10.348-8.695-11.689-24.133-2.993-34.482c8.695-10.348,24.133-11.688,34.482-2.993
			C126.479,120.474,127.819,135.912,119.123,146.26z"/>
	</g>
</g>

<g id="ombre">
	<path style="filter:url(#AI_FlouGaussien_42);fill-opacity: 0.15;" d="M181.258,174.18c-0.012,0.006-0.025,0.011-0.037,0.017L145.902,12.436h-89.5
		L21.664,174.688c-0.002-0.001-0.004-0.002-0.006-0.003c-4.386,20.688-6.992,33.213-6.887,33.26
		c26.029,11.626,55.059,18.119,85.672,18.119c31.35,0,61.04-6.809,87.547-18.968C188.187,207.005,185.63,194.613,181.258,174.18z
		 M81.65,114.847c8.695-10.348,24.133-11.688,34.482-2.993c10.348,8.695,11.689,24.133,2.993,34.482
		c-8.695,10.349-24.133,11.689-34.482,2.993S72.954,125.196,81.65,114.847z"/>
</g>
<g id="ciel">
	<g>
		<path style="fill:#25336A;" d="M145.902,12.436h-89.5l-35.36,165.153c23.573,11.654,51.045,18.619,79.399,18.619
			c28.585,0,57.77-6.959,81.482-18.791L145.902,12.436z M119.125,146.336c-8.695,10.349-24.133,11.689-34.482,2.993
			c-10.348-8.695-11.689-24.133-2.993-34.482c8.695-10.348,24.133-11.688,34.482-2.993
			C126.48,120.55,127.82,135.988,119.125,146.336z"/>
		<path style="fill:#E8E8ED;" d="M181.258,174.18c-23.593,11.639-52.495,18.832-80.816,18.832c-28.099,0-55.355-6.861-78.785-18.326
			c-4.386,20.688-6.992,33.213-6.887,33.26c26.029,11.626,55.059,18.119,85.672,18.119c31.35,0,61.04-6.809,87.547-18.968
			C188.187,207.005,185.63,194.613,181.258,174.18z"/>
	</g>
</g>
</svg>