<!--?xml version="1.0" encoding="utf-8"?-->
<svg id="star_moon_svg" style="position: absolute" version="1.1" xmlns="http://www.w3.org/2000/svg" xmlns:xlink="http://www.w3.org/1999/xlink" x="0px" y="0px" viewBox="0 0 223 223" xml:space="preserve">
<g id="star_moon">
	<g id="star_moon_container">
		<circle id="transparent_circle" cx="111.5" cy="111.5" r="111.5" style="fill: transparent;"></circle>
		<circle cx="111.5" cy="51.7" r="36.5" style="fill: rgb(203, 149, 93);"></circle>
		<circle cx="111.5" cy="171.3" r="36.5" style="fill: rgb(203, 149, 93);"></circle>
		<polygon points="192,130.4 198.8,125.3 190.3,125.3 187.9,117.8 185.4,125.3 177,125.3 183.7,130.4 181,138.8 187.9,133.5
			194.8,138.8 			" style="fill: rgb(203, 149, 93);"></polygon>
		<polygon points="176.6,64.3 183.3,59.2 174.9,59.2 172.5,51.7 170,59.2 161.6,59.2 168.3,64.3 165.6,72.7 172.5,67.4 179.3,72.7
						" style="fill: rgb(203, 149, 93);"></polygon>
		<polygon points="155.8,132.4 162.5,127.3 154.1,127.3 151.6,119.8 149.2,127.3 140.8,127.3 147.5,132.4 144.8,140.8 151.6,135.5
			158.5,140.8 			" style="fill: rgb(203, 149, 93);"></polygon>
		<polygon points="155,94.5 163.1,91.9 155.1,89.1 155.2,81.2 150.5,87.5 142.5,84.8 147.2,91.8 141.9,98.9 150.1,96.2
			154.9,103.3 			" style="fill: rgb(203, 149, 93);"></polygon>
		<polygon points="193,97.3 203.8,93.3 192.8,89.9 192.6,79.1 186.4,87.9 175.4,84.5 182.2,94 175.2,103.8 186.3,99.7 193.2,109.3
						" style="fill: rgb(203, 149, 93);"></polygon>
		<polygon points="177.4,164.3 188.5,160.5 177.4,156.8 177.4,146 171,154.7 160,151.1 166.6,160.7 159.4,170.5 170.6,166.6
			177.4,176.5 			" style="fill: rgb(203, 149, 93);"></polygon>
		<polygon points="75.8,93.4 78.1,101.6 71.4,96.5 64.9,101 67.5,93.6 60.7,88.5 69.2,88.5 72.1,80.1 74.4,88.4 83,88.4 			" style="fill: rgb(203, 149, 93);"></polygon>
		<polygon points="55.2,161.9 57.6,170 50.8,165.1 44.4,169.7 46.8,162.2 40,157.3 48.5,157.1 51.2,148.7 53.7,157 62.3,156.8
			" style="fill: rgb(203, 149, 93);"></polygon>
		<polygon points="39.8,94.8 42.3,102.9 35.4,98.1 29.1,102.8 31.4,95.2 24.6,90.3 33,90.1 35.6,81.6 38.2,89.9 46.8,89.6 			" style="fill: rgb(203, 149, 93);"></polygon>
		<polygon points="74.6,127.4 83,127.6 76.2,132.5 78.6,140 72.2,135.4 65.4,140.3 67.9,132.2 60.7,127.1 69.4,127.3 71.9,119
			" style="fill: rgb(203, 149, 93);"></polygon>
		<polygon points="40.2,125.8 51.1,129.7 40.2,133.2 40.1,144 33.8,135.2 22.8,138.8 29.5,129.3 22.4,119.5 33.5,123.4 40.3,113.8
						" style="fill: rgb(203, 149, 93);"></polygon>
		<polygon points="55.7,59.1 66.7,62.8 55.7,66.5 55.8,77.4 49.3,68.7 38.3,72.4 44.9,62.7 37.6,52.9 48.9,56.8 55.6,46.9 			" style="fill: rgb(203, 149, 93);"></polygon>
	</g>
</g>
</svg>